# xmcd
#
# Track frame offsets: 
#        150
#        20770
#        41340
#        63315
#        85910
#        97957
#        117040
#        127437
#        145790
#        163002
#        182095
#
# Disc length: 2661 seconds
#
# Revision: 3
# Processed by: cddbd v1.5.2PL0 Copyright (c) Steve Scherf et al.
# Submitted via: ExactAudioCopyFreeDBPlugin 1.0
#
DISCID=930a630b
DTITLE=Sade - Lovers Rock
DYEAR=2000
DGENRE=Smooth Jazz, Soul
TTITLE0=By Your Side
TTITLE1=Flow
TTITLE2=King Of Sorrow
TTITLE3=Somebody Already Broke My Heart
TTITLE4=All About Our Love
TTITLE5=Slave Song
TTITLE6=The Sweetest Gift
TTITLE7=Every Word
TTITLE8=Immigrant
TTITLE9=Lovers Rock
TTITLE10=It's Only Love That Gets You Through
EXTD=
EXTT0=
EXTT1=
EXTT2=
EXTT3=
EXTT4=
EXTT5=
EXTT6=
EXTT7=
EXTT8=
EXTT9=
EXTT10=
PLAYORDER=
